<svg preserveAspectRatio="none" width="100%" height="100%" overflow="visible" style="display: block;" viewBox="0 0 35 34" fill="none" xmlns="http://www.w3.org/2000/svg">
<g id="&#208;&#155;&#208;&#190;&#208;&#179;&#208;&#190;">
<path id="Vector" d="M4.62 22.5692C4.92541 22.5692 5.173 20.0758 5.173 17C5.173 13.9242 4.92541 11.4308 4.62 11.4308C4.31458 11.4308 4.067 13.9242 4.067 17C4.067 20.0758 4.31458 22.5692 4.62 22.5692Z" fill="var(--fill-0, black)"/>
<path id="Vector_2" d="M6.09 23.188C6.43021 23.188 6.706 20.4175 6.706 17C6.706 13.5825 6.43021 10.812 6.09 10.812C5.74979 10.812 5.474 13.5825 5.474 17C5.474 20.4175 5.74979 23.188 6.09 23.188Z" fill="var(--fill-0, black)"/>
<path id="Vector_3" d="M7.728 23.8816C8.10299 23.8816 8.407 20.8006 8.407 17C8.407 13.1994 8.10299 10.1184 7.728 10.1184C7.35301 10.1184 7.049 13.1994 7.049 17C7.049 20.8006 7.35301 23.8816 7.728 23.8816Z" fill="var(--fill-0, black)"/>
<path id="Vector_4" d="M9.541 24.6432C9.95855 24.6432 10.297 21.2212 10.297 17C10.297 12.7788 9.95855 9.3568 9.541 9.3568C9.12345 9.3568 8.785 12.7788 8.785 17C8.785 21.2212 9.12345 24.6432 9.541 24.6432Z" fill="var(--fill-0, black)"/>
<path id="Vector_5" d="M11.557 25.4932C12.0209 25.4932 12.397 21.6906 12.397 17C12.397 12.3094 12.0209 8.5068 11.557 8.5068C11.0931 8.5068 10.717 12.3094 10.717 17C10.717 21.6906 11.0931 25.4932 11.557 25.4932Z" fill="var(--fill-0, black)"/>
<path id="Vector_6" d="M13.804 26.4384C14.3182 26.4384 14.735 22.2127 14.735 17C14.735 11.7873 14.3182 7.5616 13.804 7.5616C13.2899 7.5616 12.873 11.7873 12.873 17C12.873 22.2127 13.2899 26.4384 13.804 26.4384Z" fill="var(--fill-0, black)"/>
<path id="Vector_7" d="M16.296 27.4856C16.8682 27.4856 17.332 22.791 17.332 17C17.332 11.209 16.8682 6.5144 16.296 6.5144C15.7238 6.5144 15.26 11.209 15.26 17C15.26 22.791 15.7238 27.4856 16.296 27.4856Z" fill="var(--fill-0, black)"/>
<path id="Vector_8" d="M19.061 28.6484C19.6989 28.6484 20.216 23.4332 20.216 17C20.216 10.5668 19.6989 5.3516 19.061 5.3516C18.4231 5.3516 17.906 10.5668 17.906 17C17.906 23.4332 18.4231 28.6484 19.061 28.6484Z" fill="var(--fill-0, black)"/>
<path id="Vector_9" d="M22.134 29.9472C22.8415 29.9472 23.415 24.1505 23.415 17C23.415 9.84946 22.8415 4.0528 22.134 4.0528C21.4265 4.0528 20.853 9.84946 20.853 17C20.853 24.1505 21.4265 29.9472 22.134 29.9472Z" fill="var(--fill-0, black)"/>
<path id="Vector_10" d="M25.55 31.382C26.3348 31.382 26.971 24.9429 26.971 17C26.971 9.05706 26.3348 2.618 25.55 2.618C24.7652 2.618 24.129 9.05706 24.129 17C24.129 24.9429 24.7652 31.382 25.55 31.382Z" fill="var(--fill-0, black)"/>
<path id="Vector_11" d="M29.344 32.98C30.2177 32.98 30.926 25.8255 30.926 17C30.926 8.17448 30.2177 1.02 29.344 1.02C28.4703 1.02 27.762 8.17448 27.762 17C27.762 25.8255 28.4703 32.98 29.344 32.98Z" fill="var(--fill-0, black)"/>
</g>
</svg>
